<svg id="svg" version="1.1" xmlns="http://www.w3.org/2000/svg" xmlns:xlink="http://www.w3.org/1999/xlink" width="400" height="400" viewBox="0, 0, 400,400"><g id="svgg"><path id="path0" d="M175.600 160.000 C 175.600 160.220,175.240 160.400,174.800 160.400 C 174.178 160.400,174.000 160.667,174.000 161.600 C 174.000 162.260,173.820 162.800,173.600 162.800 C 173.358 162.800,173.200 164.533,173.200 167.200 C 173.200 169.867,173.042 171.600,172.800 171.600 C 172.549 171.600,172.400 174.125,172.400 178.376 C 172.400 182.463,172.241 185.251,172.000 185.400 C 171.742 185.559,171.600 192.480,171.600 204.852 C 171.600 225.065,171.612 225.200,173.348 225.200 C 173.681 225.200,174.064 225.380,174.200 225.600 C 174.355 225.850,178.404 226.000,185.024 226.000 C 191.808 226.000,195.600 225.857,195.600 225.600 C 195.600 225.380,196.067 225.200,196.637 225.200 C 197.338 225.200,197.743 224.941,197.884 224.400 C 197.999 223.960,198.252 223.600,198.447 223.600 C 198.641 223.600,198.800 222.700,198.800 221.600 C 198.800 220.500,198.620 219.600,198.400 219.600 C 198.160 219.600,198.000 218.008,198.000 215.624 C 198.000 213.404,197.823 211.538,197.600 211.400 C 197.379 211.263,197.200 209.463,197.200 207.376 C 197.200 205.125,197.362 203.600,197.600 203.600 C 197.820 203.600,198.000 203.317,198.000 202.971 C 198.000 202.163,198.963 201.200,199.771 201.200 C 200.117 201.200,200.400 201.020,200.400 200.800 C 200.400 200.563,201.867 200.400,204.000 200.400 C 206.133 200.400,207.600 200.563,207.600 200.800 C 207.600 201.020,207.878 201.200,208.218 201.200 C 210.370 201.200,212.338 212.203,210.400 213.400 C 210.166 213.544,210.000 215.814,210.000 218.852 C 210.000 224.235,210.269 225.200,211.771 225.200 C 212.117 225.200,212.400 225.380,212.400 225.600 C 212.400 225.857,216.192 226.000,222.976 226.000 C 229.596 226.000,233.645 225.850,233.800 225.600 C 233.936 225.380,234.319 225.200,234.652 225.200 C 235.440 225.200,236.400 224.227,236.400 223.429 C 236.400 223.083,236.580 222.800,236.800 222.800 C 237.035 222.800,237.200 221.408,237.200 219.424 C 237.200 217.567,237.020 215.936,236.800 215.800 C 236.544 215.642,236.400 209.796,236.400 199.576 C 236.400 189.192,236.260 183.600,236.000 183.600 C 235.750 183.600,235.600 181.141,235.600 177.024 C 235.600 173.071,235.440 170.349,235.200 170.200 C 234.977 170.062,234.800 168.196,234.800 165.976 C 234.800 163.592,234.640 162.000,234.400 162.000 C 234.180 162.000,234.000 161.640,234.000 161.200 C 234.000 160.667,233.733 160.400,233.200 160.400 C 232.760 160.400,232.400 160.220,232.400 160.000 C 232.400 159.744,228.667 159.600,222.000 159.600 C 216.249 159.600,211.600 159.758,211.600 159.953 C 211.600 160.148,211.240 160.401,210.800 160.516 C 209.907 160.749,209.516 170.800,210.400 170.800 C 210.648 170.800,210.800 172.933,210.800 176.400 C 210.800 179.867,210.648 182.000,210.400 182.000 C 210.180 182.000,210.000 182.360,210.000 182.800 C 210.000 183.333,209.733 183.600,209.200 183.600 C 208.760 183.600,208.400 183.780,208.400 184.000 C 208.400 184.220,207.871 184.400,207.224 184.400 C 206.577 184.400,205.936 184.580,205.800 184.800 C 205.664 185.020,204.854 185.200,204.000 185.200 C 203.146 185.200,202.336 185.020,202.200 184.800 C 202.064 184.580,201.423 184.400,200.776 184.400 C 200.129 184.400,199.600 184.220,199.600 184.000 C 199.600 183.780,199.240 183.600,198.800 183.600 C 198.267 183.600,198.000 183.333,198.000 182.800 C 198.000 182.360,197.820 182.000,197.600 182.000 C 197.352 182.000,197.200 179.867,197.200 176.400 C 197.200 172.933,197.352 170.800,197.600 170.800 C 197.846 170.800,198.000 168.800,198.000 165.600 C 198.000 160.667,197.959 160.400,197.200 160.400 C 196.760 160.400,196.400 160.220,196.400 160.000 C 196.400 159.744,192.667 159.600,186.000 159.600 C 179.333 159.600,175.600 159.744,175.600 160.000 M242.105 160.708 C 241.393 161.578,241.210 162.309,241.205 164.300 C 241.202 165.696,241.023 166.800,240.800 166.800 C 240.563 166.800,240.400 168.267,240.400 170.400 C 240.400 172.533,240.237 174.000,240.000 174.000 C 239.756 174.000,239.600 175.867,239.600 178.800 C 239.600 181.733,239.444 183.600,239.200 183.600 C 238.943 183.600,238.800 187.600,238.800 194.800 C 238.800 202.000,238.943 206.000,239.200 206.000 C 239.420 206.000,239.600 206.720,239.600 207.600 C 239.600 208.480,239.780 209.200,240.000 209.200 C 240.220 209.200,240.400 209.740,240.400 210.400 C 240.400 211.060,240.580 211.600,240.800 211.600 C 241.020 211.600,241.200 211.960,241.200 212.400 C 241.200 212.840,241.380 213.200,241.600 213.200 C 241.820 213.200,242.000 213.520,242.000 213.912 C 242.000 214.303,242.360 214.883,242.800 215.200 C 243.240 215.517,243.600 215.993,243.600 216.257 C 243.600 216.882,247.118 220.400,247.743 220.400 C 248.007 220.400,248.483 220.760,248.800 221.200 C 249.117 221.640,249.697 222.000,250.088 222.000 C 250.480 222.000,250.800 222.180,250.800 222.400 C 250.800 222.620,251.160 222.800,251.600 222.800 C 252.040 222.800,252.400 222.980,252.400 223.200 C 252.400 223.420,252.940 223.600,253.600 223.600 C 254.260 223.600,254.800 223.780,254.800 224.000 C 254.800 224.220,255.340 224.400,256.000 224.400 C 256.660 224.400,257.200 224.580,257.200 224.800 C 257.200 225.020,258.100 225.200,259.200 225.200 C 260.300 225.200,261.200 225.380,261.200 225.600 C 261.200 225.856,264.859 226.000,271.376 226.000 C 277.729 226.000,281.646 225.850,281.800 225.600 C 281.936 225.380,282.757 225.200,283.624 225.200 C 284.491 225.200,285.200 225.020,285.200 224.800 C 285.200 224.580,285.920 224.400,286.800 224.400 C 287.680 224.400,288.400 224.220,288.400 224.000 C 288.400 223.780,288.760 223.600,289.200 223.600 C 289.640 223.600,290.000 223.420,290.000 223.200 C 290.000 222.980,290.360 222.800,290.800 222.800 C 291.240 222.800,291.600 222.620,291.600 222.400 C 291.600 222.180,291.960 222.000,292.400 222.000 C 292.840 222.000,293.200 221.820,293.200 221.600 C 293.200 221.380,293.473 221.200,293.807 221.200 C 294.547 221.200,299.600 216.224,299.600 215.496 C 299.600 215.210,299.960 214.717,300.400 214.400 C 300.840 214.083,301.200 213.503,301.200 213.112 C 301.200 212.720,301.380 212.400,301.600 212.400 C 301.820 212.400,302.000 211.860,302.000 211.200 C 302.000 210.540,302.180 210.000,302.400 210.000 C 302.620 210.000,302.800 209.460,302.800 208.800 C 302.800 208.140,302.980 207.600,303.200 207.600 C 303.422 207.600,303.600 206.533,303.600 205.200 C 303.600 203.867,303.778 202.800,304.000 202.800 C 304.250 202.800,304.400 200.408,304.400 196.424 C 304.400 192.604,304.240 189.948,304.000 189.800 C 303.763 189.654,303.600 187.196,303.600 183.776 C 303.600 180.192,303.448 178.000,303.200 178.000 C 302.960 178.000,302.800 176.400,302.800 174.000 C 302.800 171.600,302.640 170.000,302.400 170.000 C 302.167 170.000,302.000 168.667,302.000 166.800 C 302.000 164.933,301.833 163.600,301.600 163.600 C 301.380 163.600,301.200 163.142,301.200 162.582 C 301.200 162.022,300.758 161.122,300.218 160.582 L 299.236 159.600 288.400 159.600 L 277.564 159.600 276.582 160.582 C 275.548 161.615,275.063 166.800,276.000 166.800 C 276.229 166.800,276.400 168.000,276.400 169.600 C 276.400 171.200,276.571 172.400,276.800 172.400 C 277.033 172.400,277.200 173.733,277.200 175.600 C 277.200 177.467,277.367 178.800,277.600 178.800 C 277.846 178.800,278.000 180.800,278.000 184.000 C 278.000 187.200,278.154 189.200,278.400 189.200 C 278.637 189.200,278.800 190.667,278.800 192.800 C 278.800 194.933,278.637 196.400,278.400 196.400 C 278.180 196.400,278.000 197.120,278.000 198.000 C 278.000 198.880,277.820 199.600,277.600 199.600 C 277.380 199.600,277.200 200.056,277.200 200.613 C 277.200 201.740,274.821 204.400,273.813 204.400 C 273.476 204.400,273.200 204.580,273.200 204.800 C 273.200 205.570,269.622 205.251,268.708 204.400 C 268.236 203.960,267.613 203.600,267.325 203.600 C 267.036 203.600,266.800 203.322,266.800 202.983 C 266.800 202.644,266.440 201.980,266.000 201.508 C 265.560 201.036,265.200 200.244,265.200 199.748 C 265.200 199.253,265.020 198.736,264.800 198.600 C 264.557 198.450,264.400 195.470,264.400 191.000 C 264.400 186.530,264.557 183.550,264.800 183.400 C 265.025 183.261,265.200 181.329,265.200 178.976 C 265.200 176.459,265.359 174.800,265.600 174.800 C 265.829 174.800,266.000 173.600,266.000 172.000 C 266.000 170.400,266.171 169.200,266.400 169.200 C 266.642 169.200,266.800 167.467,266.800 164.800 C 266.800 160.667,266.752 160.400,266.000 160.400 C 265.560 160.400,265.200 160.220,265.200 160.000 C 265.200 159.743,261.238 159.603,254.100 159.608 L 243.000 159.615 242.105 160.708 M309.300 160.610 C 308.531 161.431,308.400 162.011,308.400 164.586 C 308.400 166.329,308.231 167.600,308.000 167.600 C 307.750 167.600,307.600 170.000,307.600 174.000 C 307.600 178.000,307.450 180.400,307.200 180.400 C 306.944 180.400,306.800 183.867,306.800 190.000 C 306.800 196.133,306.656 199.600,306.400 199.600 C 306.142 199.600,306.000 203.867,306.000 211.600 C 306.000 218.277,306.157 223.600,306.353 223.600 C 306.548 223.600,306.801 223.960,306.916 224.400 C 307.057 224.941,307.462 225.200,308.163 225.200 C 308.733 225.200,309.200 225.380,309.200 225.600 C 309.200 225.861,316.000 226.000,328.800 226.000 C 341.600 226.000,348.400 225.861,348.400 225.600 C 348.400 225.378,349.467 225.200,350.800 225.200 C 352.133 225.200,353.200 225.022,353.200 224.800 C 353.200 224.580,353.920 224.400,354.800 224.400 C 355.680 224.400,356.400 224.220,356.400 224.000 C 356.400 223.780,356.940 223.600,357.600 223.600 C 358.260 223.600,358.800 223.420,358.800 223.200 C 358.800 222.980,359.340 222.800,360.000 222.800 C 360.660 222.800,361.200 222.620,361.200 222.400 C 361.200 222.180,361.560 222.000,362.000 222.000 C 362.440 222.000,362.800 221.820,362.800 221.600 C 362.800 221.380,363.160 221.200,363.600 221.200 C 364.040 221.200,364.400 221.020,364.400 220.800 C 364.400 220.580,364.674 220.400,365.009 220.400 C 365.343 220.400,366.603 219.414,367.809 218.209 C 369.014 217.003,370.000 215.743,370.000 215.409 C 370.000 215.074,370.180 214.800,370.400 214.800 C 370.620 214.800,370.800 214.440,370.800 214.000 C 370.800 213.560,370.980 213.200,371.200 213.200 C 371.442 213.200,371.600 211.467,371.600 208.800 C 371.600 206.133,371.442 204.400,371.200 204.400 C 370.980 204.400,370.800 204.166,370.800 203.880 C 370.800 203.144,369.859 201.207,369.500 201.203 C 369.335 201.201,369.200 200.912,369.200 200.560 C 369.200 199.853,365.735 196.400,365.025 196.400 C 364.778 196.400,364.317 196.040,364.000 195.600 C 363.683 195.160,363.103 194.800,362.712 194.800 C 362.320 194.800,362.000 194.620,362.000 194.400 C 362.000 194.180,361.640 194.000,361.200 194.000 C 360.760 194.000,360.400 193.820,360.400 193.600 C 360.400 193.380,360.040 193.200,359.600 193.200 C 359.160 193.200,358.800 193.020,358.800 192.800 C 358.800 192.580,358.260 192.400,357.600 192.400 C 356.940 192.400,356.400 192.220,356.400 192.000 C 356.400 191.780,355.961 191.600,355.424 191.600 C 354.887 191.600,354.336 191.420,354.200 191.200 C 354.064 190.980,353.243 190.800,352.376 190.800 C 351.509 190.800,350.800 190.620,350.800 190.400 C 350.800 190.180,350.350 190.000,349.800 190.000 C 349.250 190.000,348.800 189.820,348.800 189.600 C 348.800 189.380,349.250 189.200,349.800 189.200 C 350.350 189.200,350.800 189.020,350.800 188.800 C 350.800 188.580,351.520 188.400,352.400 188.400 C 353.280 188.400,354.000 188.220,354.000 188.000 C 354.000 187.780,354.540 187.600,355.200 187.600 C 355.860 187.600,356.400 187.420,356.400 187.200 C 356.400 186.980,356.760 186.800,357.200 186.800 C 357.640 186.800,358.000 186.620,358.000 186.400 C 358.000 186.180,358.360 186.000,358.800 186.000 C 359.240 186.000,359.600 185.820,359.600 185.600 C 359.600 185.380,359.920 185.200,360.312 185.200 C 360.703 185.200,361.283 184.840,361.600 184.400 C 361.917 183.960,362.412 183.600,362.699 183.600 C 363.427 183.600,366.800 180.155,366.800 179.411 C 366.800 179.075,366.980 178.800,367.200 178.800 C 367.420 178.800,367.600 178.440,367.600 178.000 C 367.600 177.560,367.780 177.200,368.000 177.200 C 368.242 177.200,368.400 175.467,368.400 172.800 C 368.400 170.133,368.242 168.400,368.000 168.400 C 367.780 168.400,367.600 168.118,367.600 167.774 C 367.600 166.959,363.441 162.800,362.626 162.800 C 362.282 162.800,362.000 162.620,362.000 162.400 C 362.000 162.180,361.460 162.000,360.800 162.000 C 360.140 162.000,359.600 161.820,359.600 161.600 C 359.600 161.380,359.060 161.200,358.400 161.200 C 357.740 161.200,357.200 161.020,357.200 160.800 C 357.200 160.580,356.401 160.400,355.424 160.400 C 354.447 160.400,353.536 160.220,353.400 160.000 C 353.240 159.741,345.589 159.609,331.676 159.624 L 310.200 159.649 309.300 160.610 M340.400 176.000 C 340.400 176.220,340.678 176.400,341.018 176.400 C 342.093 176.400,343.600 178.265,343.600 179.595 C 343.600 180.936,341.347 183.600,340.213 183.600 C 339.876 183.600,339.600 183.780,339.600 184.000 C 339.600 184.220,339.060 184.400,338.400 184.400 C 337.740 184.400,337.200 184.580,337.200 184.800 C 337.200 185.020,336.315 185.200,335.233 185.200 C 334.023 185.200,333.203 185.391,333.101 185.696 C 332.981 186.057,332.754 186.011,332.268 185.525 C 331.422 184.679,331.286 177.123,332.100 176.198 C 332.698 175.519,340.400 175.335,340.400 176.000 M334.000 195.200 C 334.000 195.420,334.900 195.600,336.000 195.600 C 337.100 195.600,338.000 195.780,338.000 196.000 C 338.000 196.220,338.540 196.400,339.200 196.400 C 339.860 196.400,340.400 196.580,340.400 196.800 C 340.400 197.020,340.760 197.200,341.200 197.200 C 341.640 197.200,342.000 197.380,342.000 197.600 C 342.000 197.820,342.276 198.000,342.613 198.000 C 343.945 198.000,346.000 200.669,346.000 202.400 C 346.000 204.131,343.945 206.800,342.613 206.800 C 342.276 206.800,342.000 206.980,342.000 207.200 C 342.000 207.874,332.857 207.714,332.171 207.029 C 331.405 206.262,331.344 196.257,332.100 195.398 C 332.676 194.744,334.000 194.606,334.000 195.200 M220.100 237.798 C 219.445 238.542,219.442 241.881,220.096 242.099 C 220.457 242.219,220.411 242.446,219.925 242.932 C 219.094 243.763,218.800 243.776,218.800 242.982 C 218.800 242.642,218.358 241.922,217.818 241.382 C 217.278 240.842,216.558 240.400,216.218 240.400 C 215.878 240.400,215.600 240.220,215.600 240.000 C 215.600 239.780,215.240 239.600,214.800 239.600 C 214.360 239.600,214.000 239.420,214.000 239.200 C 214.000 238.952,211.867 238.800,208.400 238.800 L 202.800 238.800 202.800 241.376 C 202.800 242.793,202.620 244.064,202.400 244.200 C 201.620 244.682,201.894 256.031,202.700 256.643 C 203.553 257.291,213.411 257.430,213.800 256.800 C 213.936 256.580,214.577 256.400,215.224 256.400 C 215.871 256.400,216.400 256.220,216.400 256.000 C 216.400 255.780,216.683 255.600,217.029 255.600 C 217.837 255.600,218.800 254.637,218.800 253.829 C 218.800 253.483,218.980 253.200,219.200 253.200 C 219.420 253.200,219.600 253.843,219.600 254.629 C 219.600 256.718,220.307 257.200,223.371 257.200 C 224.857 257.200,226.000 257.026,226.000 256.800 C 226.000 256.578,227.067 256.400,228.400 256.400 C 229.733 256.400,230.800 256.578,230.800 256.800 C 230.800 257.022,231.867 257.200,233.200 257.200 C 234.533 257.200,235.600 257.022,235.600 256.800 C 235.600 256.580,236.320 256.400,237.200 256.400 C 238.080 256.400,238.800 256.220,238.800 256.000 C 238.800 255.780,239.062 255.600,239.381 255.600 C 239.701 255.600,240.261 254.972,240.625 254.204 C 241.271 252.841,242.000 252.650,242.000 253.842 C 242.000 254.794,243.872 256.400,244.982 256.400 C 245.542 256.400,246.000 256.580,246.000 256.800 C 246.000 257.022,247.067 257.200,248.400 257.200 C 249.733 257.200,250.800 257.022,250.800 256.800 C 250.800 256.580,251.340 256.400,252.000 256.400 C 252.660 256.400,253.200 256.580,253.200 256.800 C 253.200 257.455,259.156 257.301,259.829 256.629 C 260.475 255.982,260.614 253.200,260.000 253.200 C 259.219 253.200,259.615 251.149,260.582 250.182 C 261.576 249.188,262.800 248.867,262.800 249.600 C 262.800 249.820,263.520 250.000,264.400 250.000 L 266.000 250.000 266.000 253.029 C 266.000 256.830,266.320 257.200,269.600 257.200 C 273.040 257.200,273.200 256.962,273.200 251.829 C 273.200 249.276,273.359 247.600,273.600 247.600 C 273.831 247.600,274.000 248.871,274.000 250.613 C 274.000 254.014,275.561 256.400,277.787 256.400 C 278.344 256.400,278.800 256.580,278.800 256.800 C 278.800 257.022,279.867 257.200,281.200 257.200 C 282.533 257.200,283.600 257.022,283.600 256.800 C 283.600 256.580,284.140 256.400,284.800 256.400 C 285.733 256.400,286.000 256.222,286.000 255.600 C 286.000 255.160,286.140 254.800,286.312 254.800 C 286.483 254.800,286.883 255.160,287.200 255.600 C 287.602 256.157,288.235 256.400,289.288 256.400 C 290.120 256.400,290.800 256.580,290.800 256.800 C 290.800 257.020,291.700 257.200,292.800 257.200 C 293.900 257.200,294.800 257.020,294.800 256.800 C 294.800 256.580,295.436 256.400,296.213 256.400 C 297.293 256.400,297.954 256.072,299.013 255.013 L 300.400 253.627 300.400 249.813 C 300.400 247.716,300.263 246.000,300.095 246.000 C 299.927 246.000,299.612 245.595,299.395 245.100 C 299.178 244.605,298.595 244.022,298.100 243.805 C 297.605 243.588,297.200 243.273,297.200 243.105 C 297.200 242.937,296.660 242.800,296.000 242.800 C 295.340 242.800,294.800 242.620,294.800 242.400 C 294.800 242.180,293.900 242.000,292.800 242.000 C 291.700 242.000,290.800 242.180,290.800 242.400 C 290.800 242.620,290.260 242.800,289.600 242.800 C 288.940 242.800,288.400 242.980,288.400 243.200 C 288.400 243.420,288.040 243.600,287.600 243.600 C 287.160 243.600,286.800 243.780,286.800 244.000 C 286.800 244.724,286.098 244.417,285.884 243.600 C 285.713 242.946,285.338 242.800,283.837 242.800 L 282.000 242.800 282.000 241.200 L 282.000 239.600 278.400 239.600 L 274.800 239.600 274.800 240.629 C 274.800 241.194,274.543 241.914,274.229 242.229 C 273.573 242.884,272.400 242.994,272.400 242.400 C 272.400 242.180,272.580 242.000,272.800 242.000 C 273.423 242.000,273.278 238.420,272.629 237.771 C 271.850 236.993,267.350 236.993,266.571 237.771 C 265.922 238.420,265.777 242.000,266.400 242.000 C 266.620 242.000,266.800 242.180,266.800 242.400 C 266.800 242.620,266.260 242.800,265.600 242.800 C 264.940 242.800,264.400 242.620,264.400 242.400 C 264.400 242.180,263.860 242.000,263.200 242.000 C 262.540 242.000,262.000 242.180,262.000 242.400 C 262.000 242.620,261.280 242.800,260.400 242.800 C 259.520 242.800,258.800 242.620,258.800 242.400 C 258.800 242.178,257.733 242.000,256.400 242.000 C 255.067 242.000,254.000 242.178,254.000 242.400 C 254.000 242.622,252.933 242.800,251.600 242.800 L 249.200 242.800 249.200 241.200 L 249.200 239.600 245.600 239.600 L 242.000 239.600 242.000 241.200 L 242.000 242.800 239.200 242.800 C 237.600 242.800,236.400 242.629,236.400 242.400 C 236.400 242.178,235.333 242.000,234.000 242.000 C 232.667 242.000,231.600 242.178,231.600 242.400 C 231.600 242.620,230.920 242.800,230.088 242.800 C 229.035 242.800,228.402 243.043,228.000 243.600 C 227.273 244.609,226.800 244.622,226.800 243.633 C 226.800 243.212,226.575 242.762,226.300 242.633 C 225.900 242.447,225.900 242.353,226.300 242.167 C 226.996 241.842,226.941 238.484,226.229 237.771 C 225.451 236.994,220.790 237.014,220.100 237.798 M309.200 239.200 C 309.200 239.420,308.840 239.600,308.400 239.600 C 307.667 239.600,307.600 239.867,307.600 242.800 L 307.600 246.000 309.200 246.000 C 310.080 246.000,310.800 245.820,310.800 245.600 C 310.800 245.380,311.160 245.200,311.600 245.200 C 312.040 245.200,312.400 245.020,312.400 244.800 C 312.400 244.580,312.940 244.400,313.600 244.400 C 314.260 244.400,314.800 244.503,314.800 244.629 C 314.800 245.098,313.635 246.000,313.029 246.000 C 312.683 246.000,312.400 246.180,312.400 246.400 C 312.400 246.620,312.040 246.800,311.600 246.800 C 311.160 246.800,310.800 246.980,310.800 247.200 C 310.800 247.420,310.524 247.600,310.187 247.600 C 307.528 247.600,305.331 254.996,307.500 256.643 C 309.563 258.209,323.600 257.174,323.600 255.456 C 323.600 254.570,324.101 254.630,324.800 255.600 C 325.202 256.157,325.835 256.400,326.888 256.400 C 327.720 256.400,328.400 256.580,328.400 256.800 C 328.400 257.033,329.733 257.200,331.600 257.200 C 333.467 257.200,334.800 257.033,334.800 256.800 C 334.800 256.580,335.436 256.400,336.213 256.400 C 339.608 256.400,342.230 249.896,339.600 248.000 C 338.727 247.371,338.528 246.157,339.258 245.914 C 341.076 245.308,339.315 239.641,337.300 239.613 C 336.805 239.606,336.400 239.420,336.400 239.200 C 336.400 238.956,334.533 238.800,331.600 238.800 C 328.667 238.800,326.800 238.956,326.800 239.200 C 326.800 239.420,326.440 239.600,326.000 239.600 C 325.560 239.600,325.200 239.780,325.200 240.000 C 325.200 240.220,324.840 240.400,324.400 240.400 C 323.358 240.400,323.195 245.252,324.204 246.261 C 325.044 247.101,323.115 249.200,321.501 249.200 C 320.896 249.200,320.399 249.335,320.397 249.500 C 320.395 249.665,319.909 250.025,319.317 250.300 C 318.024 250.901,315.847 250.970,316.200 250.400 C 316.336 250.180,316.797 250.000,317.224 250.000 C 317.651 250.000,318.000 249.820,318.000 249.600 C 318.000 249.380,318.360 249.200,318.800 249.200 C 319.240 249.200,319.600 249.064,319.600 248.898 C 319.600 248.731,320.140 248.356,320.800 248.064 C 321.531 247.741,322.000 247.233,322.000 246.766 C 322.000 246.345,322.180 246.000,322.400 246.000 C 322.620 246.000,322.800 245.002,322.800 243.782 C 322.800 241.469,322.231 240.531,320.083 239.300 C 319.005 238.682,309.200 238.592,309.200 239.200 M333.200 244.800 C 333.200 245.020,332.581 245.200,331.824 245.200 C 331.067 245.200,330.336 245.020,330.200 244.800 C 330.051 244.558,330.596 244.400,331.576 244.400 C 332.469 244.400,333.200 244.580,333.200 244.800 M211.600 246.000 C 211.600 246.440,211.780 246.800,212.000 246.800 C 212.607 246.800,212.478 248.779,211.829 249.429 C 210.561 250.697,210.000 250.136,210.000 247.600 C 210.000 245.467,210.089 245.200,210.800 245.200 C 211.333 245.200,211.600 245.467,211.600 246.000 M241.200 249.624 C 241.200 250.871,241.047 251.552,240.800 251.400 C 240.580 251.264,240.400 250.713,240.400 250.176 C 240.400 249.467,240.182 249.200,239.600 249.200 C 238.672 249.200,238.607 248.985,239.300 248.198 C 240.435 246.909,241.200 247.483,241.200 249.624 M252.400 248.800 C 252.400 249.733,252.222 250.000,251.600 250.000 C 251.160 250.000,250.800 250.180,250.800 250.400 C 250.800 250.620,250.440 250.800,250.000 250.800 C 249.333 250.800,249.200 250.533,249.200 249.200 L 249.200 247.600 250.800 247.600 C 252.311 247.600,252.400 247.667,252.400 248.800 M285.200 248.000 C 285.200 248.220,285.020 248.400,284.800 248.400 C 284.580 248.400,284.400 248.683,284.400 249.029 C 284.400 249.796,283.451 250.800,282.725 250.800 C 281.763 250.800,281.123 249.312,281.693 248.400 C 282.223 247.551,285.200 247.212,285.200 248.000 M293.457 249.000 C 293.990 249.533,293.990 249.667,293.457 250.200 C 292.443 251.214,291.600 250.941,291.600 249.600 C 291.600 248.259,292.443 247.986,293.457 249.000 M333.200 250.000 C 333.200 250.667,332.933 250.800,331.600 250.800 C 330.092 250.800,329.513 250.221,330.267 249.467 C 330.945 248.789,333.200 249.199,333.200 250.000 " stroke="none" fill="#fcfcfc" fill-rule="evenodd"></path><path id="path1" d="M40.600 164.000 C 40.464 164.220,40.003 164.400,39.576 164.400 C 39.149 164.400,38.800 164.580,38.800 164.800 C 38.800 165.020,38.385 165.200,37.878 165.200 C 36.849 165.200,34.000 167.599,34.000 168.466 C 34.000 168.772,33.640 169.283,33.200 169.600 C 32.760 169.917,32.400 170.576,32.400 171.065 C 32.400 171.553,32.220 172.064,32.000 172.200 C 31.739 172.362,31.600 183.937,31.600 205.624 L 31.600 238.800 44.800 238.800 C 53.333 238.800,58.000 238.659,58.000 238.400 C 58.000 238.180,58.454 238.000,59.009 238.000 C 60.140 238.000,64.400 234.056,64.400 233.009 C 64.400 232.674,64.580 232.400,64.800 232.400 C 65.020 232.400,65.200 232.040,65.200 231.600 C 65.200 231.160,65.380 230.800,65.600 230.800 C 65.863 230.800,66.000 219.333,66.000 197.200 L 66.000 163.600 53.424 163.600 C 45.471 163.600,40.756 163.747,40.600 164.000 " stroke="none" fill="#3cb4fc" fill-rule="evenodd"></path><path id="path2" d="M82.800 208.800 C 82.800 209.020,82.260 209.200,81.600 209.200 C 80.940 209.200,80.400 209.380,80.400 209.600 C 80.400 209.820,80.118 210.000,79.774 210.000 C 78.959 210.000,74.800 214.159,74.800 214.974 C 74.800 215.318,74.620 215.600,74.400 215.600 C 74.180 215.600,74.000 216.039,74.000 216.576 C 74.000 217.113,73.820 217.664,73.600 217.800 C 73.339 217.962,73.200 229.404,73.200 250.824 L 73.200 283.600 86.400 283.600 C 94.933 283.600,99.600 283.459,99.600 283.200 C 99.600 282.980,100.100 282.800,100.712 282.800 C 101.365 282.800,102.061 282.470,102.400 282.000 C 102.717 281.560,103.231 281.200,103.542 281.200 C 104.204 281.200,105.999 279.228,106.000 278.500 C 106.000 278.225,106.180 278.000,106.400 278.000 C 106.620 278.000,106.800 277.640,106.800 277.200 C 106.800 276.760,106.980 276.400,107.200 276.400 C 107.420 276.400,107.600 275.500,107.600 274.400 C 107.600 273.300,107.780 272.400,108.000 272.400 C 108.705 272.400,108.535 209.678,107.829 208.971 C 107.128 208.270,82.800 208.104,82.800 208.800 " stroke="none" fill="#fc5454" fill-rule="evenodd"></path><path id="path3" d="M81.200 116.800 C 81.200 117.020,80.840 117.200,80.400 117.200 C 79.960 117.200,79.600 117.380,79.600 117.600 C 79.600 117.820,79.312 118.000,78.960 118.000 C 78.111 118.000,74.800 121.533,74.800 122.440 C 74.800 122.832,74.620 123.264,74.400 123.400 C 74.180 123.536,74.000 123.997,74.000 124.424 C 74.000 124.851,73.820 125.200,73.600 125.200 C 73.337 125.200,73.200 136.533,73.200 158.400 L 73.200 191.600 86.000 191.600 C 94.267 191.600,98.800 191.458,98.800 191.200 C 98.800 190.980,99.340 190.800,100.000 190.800 C 100.660 190.800,101.200 190.620,101.200 190.400 C 101.200 190.180,101.486 190.000,101.835 190.000 C 102.833 190.000,106.800 185.643,106.800 184.546 C 106.800 184.026,106.961 183.600,107.158 183.600 C 107.961 183.600,108.110 178.819,108.260 148.300 L 108.418 116.400 94.809 116.400 C 86.003 116.400,81.200 116.541,81.200 116.800 " stroke="none" fill="#04bc64" fill-rule="evenodd"></path><path id="path4" d="M124.600 164.000 C 124.464 164.220,124.003 164.400,123.576 164.400 C 123.149 164.400,122.800 164.580,122.800 164.800 C 122.800 165.020,122.440 165.200,122.000 165.200 C 121.560 165.200,121.200 165.380,121.200 165.600 C 121.200 165.820,120.917 166.000,120.571 166.000 C 119.884 166.000,118.800 166.925,118.800 167.512 C 118.800 167.715,118.260 168.446,117.600 169.137 C 116.940 169.828,116.400 170.744,116.400 171.173 C 116.400 171.602,116.220 172.064,116.000 172.200 C 115.739 172.362,115.600 183.937,115.600 205.624 L 115.600 238.800 128.800 238.800 C 137.333 238.800,142.000 238.659,142.000 238.400 C 142.000 238.180,142.473 238.000,143.051 238.000 C 144.448 238.000,149.200 233.179,149.200 231.762 C 149.200 231.233,149.380 230.800,149.600 230.800 C 149.863 230.800,150.000 219.333,150.000 197.200 L 150.000 163.600 137.424 163.600 C 129.471 163.600,124.756 163.747,124.600 164.000 " stroke="none" fill="#fcdc5c" fill-rule="evenodd"></path></g></svg>