<svg xmlns="http://www.w3.org/2000/svg" viewBox="0 0 875.55 177.12"><defs><style>.cls-1{fill:#fff;}.cls-2{fill:#03c04a;}</style></defs><g id="Camada_2" data-name="Camada 2"><g id="Exports"><g id="Logotipos"><g id="Export2"><rect class="cls-1" width="875.55" height="177.12"/><g id="_2.2_Fundo_branco" data-name="[2.2 Fundo branco"><polygon id="Letra_K" data-name="Letra K" points="804.51 158.44 771.36 112.88 802.57 72.46 772.34 72.46 744.59 111.15 744.59 30.01 717.37 30.01 717.37 158.44 744.59 158.44 744.59 116.76 772.52 158.44 804.51 158.44"/><path id="Letra_C" data-name="Letra C" d="M681,133.85a23.93,23.93,0,0,1-9.46,1.77,20.31,20.31,0,0,1-10.07-2.57,18.19,18.19,0,0,1-7.16-7.16,21.46,21.46,0,0,1-2.57-10.62,20.59,20.59,0,0,1,2.57-10.35,18.54,18.54,0,0,1,7.07-7.07,20.16,20.16,0,0,1,10.16-2.57,24.2,24.2,0,0,1,9.11,1.6,18.56,18.56,0,0,1,7,5l17.5-17.69A44,44,0,0,0,690.23,74a48.63,48.63,0,0,0-18.65-3.45,50,50,0,0,0-24.22,5.84,45.15,45.15,0,0,0-17.05,62.09,43,43,0,0,0,16.88,16.09,50,50,0,0,0,24.22,5.84,45.39,45.39,0,0,0,34.29-14.33l-17.5-17.33A20.07,20.07,0,0,1,681,133.85Z"/><path id="Letra_E" data-name="Letra E" d="M595.93,76a45.38,45.38,0,0,0-22.63-5.48,47.21,47.21,0,0,0-23.51,5.84,43.27,43.27,0,0,0-16.44,16,44.18,44.18,0,0,0-6,22.91,44.24,44.24,0,0,0,6.19,23.35,43,43,0,0,0,17,16,51.77,51.77,0,0,0,24.74,5.75,53,53,0,0,0,20-3.63,38.47,38.47,0,0,0,15.38-11.23l-15-14.86a25.31,25.31,0,0,1-9,6.64,28.36,28.36,0,0,1-11.32,2.21,23.46,23.46,0,0,1-11.93-2.92,19.61,19.61,0,0,1-7.78-8.4,24.66,24.66,0,0,1-1.4-3.6l61.42-.3a35.46,35.46,0,0,0,1.15-5.74c.17-1.71.26-3.39.26-5a43.49,43.49,0,0,0-5.65-22.28A40.64,40.64,0,0,0,595.93,76ZM562.61,94.22a20,20,0,0,1,11-3,18.16,18.16,0,0,1,10,2.65,16.49,16.49,0,0,1,6.28,7.52,24.69,24.69,0,0,1,1.33,4.23l-37.15.21a23.85,23.85,0,0,1,1.26-3.29A19.87,19.87,0,0,1,562.61,94.22Z"/><path id="Letra_H" data-name="Letra H" d="M499.76,74.85a36.27,36.27,0,0,0-17.67-4.15,35.53,35.53,0,0,0-17.33,4.15A31,31,0,0,0,458.93,79V30H431.71V158.44h27.22v-49a15.24,15.24,0,0,1,1.94-7.79,13.73,13.73,0,0,1,5.31-5.22,15.49,15.49,0,0,1,7.6-1.85,14.52,14.52,0,0,1,10.6,4.15,14.35,14.35,0,0,1,4.25,10.71v49h27.22v-55a33.62,33.62,0,0,0-4.24-17.07A30.14,30.14,0,0,0,499.76,74.85Z"/><path id="Letra_C-2" data-name="Letra C" d="M388.22,132a43.26,43.26,0,0,1-16.62,2.92,38.92,38.92,0,0,1-14.85-2.74,33.23,33.23,0,0,1-11.66-8,35.71,35.71,0,0,1-7.6-12.39,45.76,45.76,0,0,1-2.65-16,45.46,45.46,0,0,1,2.65-15.74,34.68,34.68,0,0,1,7.6-12.38,33.81,33.81,0,0,1,11.66-7.87,38.92,38.92,0,0,1,14.85-2.75,40.72,40.72,0,0,1,16.18,3,33.32,33.32,0,0,1,11.75,8.32l18.74-18.93A64.26,64.26,0,0,0,398,36.38,68.71,68.71,0,0,0,371.6,31.6a67.57,67.57,0,0,0-26,4.87A64.75,64.75,0,0,0,324.85,50,61.33,61.33,0,0,0,311,70.43a64.78,64.78,0,0,0-5,25.38,64.76,64.76,0,0,0,5,25.39,63.2,63.2,0,0,0,34.74,34.32,68,68,0,0,0,25.89,4.86q15.39,0,27-4.69a63.26,63.26,0,0,0,20.51-13.18l-18.92-18.92A33,33,0,0,1,388.22,132Z"/><path id="Letra_R" data-name="Letra R" d="M273,102.54a35.61,35.61,0,0,0,14.85-12.83q5.3-8.22,5.3-19.55a34.91,34.91,0,0,0-5.21-18.92,35.64,35.64,0,0,0-14.59-13q-9.37-4.68-21.92-4.68H200.31V158.44h27.93v-51.3h2.86l37.1,51.3h33.05l-39.77-52.26A45,45,0,0,0,273,102.54ZM228.24,55.31h20q8.13,0,12.64,4.42a15,15,0,0,1,4.51,11.14q0,7.08-4.6,11.24T248,86.26h-19.8Z"/><path id="Letra_Q_com_corte_" data-name="Letra Q (com corte)" d="M135.86,128.28a38.56,38.56,0,0,1-16.11,3.29,40.59,40.59,0,0,1-15.29-2.74,32.13,32.13,0,0,1-11.67-8,36.42,36.42,0,0,1-7.51-12.48A46.46,46.46,0,0,1,82.63,92.3a43.23,43.23,0,0,1,4.6-20.43,33.45,33.45,0,0,1,12.9-13.63q8.31-4.86,19.62-4.86a39.6,39.6,0,0,1,14.94,2.74,33.17,33.17,0,0,1,11.76,8,36,36,0,0,1,7.6,12.39A45.44,45.44,0,0,1,156.7,92.3a45.68,45.68,0,0,1-3.12,17.26l21.31,18.61a63.45,63.45,0,0,0,5.5-10.31,64.94,64.94,0,0,0,4.94-25.39,65.42,65.42,0,0,0-4.94-25.56,62.47,62.47,0,0,0-13.88-20.52,64,64,0,0,0-20.86-13.62,68,68,0,0,0-25.9-4.86A69,69,0,0,0,93.5,32.77,64,64,0,0,0,72.64,46.39,62.39,62.39,0,0,0,58.77,66.82a64.46,64.46,0,0,0-5,25.48,63.48,63.48,0,0,0,19.09,46,65.34,65.34,0,0,0,20.94,13.8A67.91,67.91,0,0,0,120.11,157a65.81,65.81,0,0,0,25.63-4.95,66.86,66.86,0,0,0,10.86-5.75Z"/><rect class="cls-2" x="802.57" y="53.28" width="19.17" height="19.18"/><rect class="cls-1" x="805.94" y="56.73" width="12.33" height="12.33"/><rect class="cls-2" x="808.76" y="59.55" width="6.69" height="6.7"/><rect class="cls-2" x="613.82" y="149.34" width="16.94" height="16.95"/><rect class="cls-1" x="616.84" y="152.37" width="10.89" height="10.9"/><rect class="cls-2" x="620.47" y="156" width="3.62" height="3.63"/><rect class="cls-2" x="412.54" y="10.83" width="19.17" height="19.18"/><rect class="cls-1" x="415.96" y="14.25" width="12.33" height="12.33"/><rect class="cls-2" x="418.78" y="17.07" width="6.69" height="6.7"/><rect class="cls-2" x="361.42" y="86.41" width="19.17" height="19.18"/><rect class="cls-1" x="364.85" y="89.84" width="12.33" height="12.33"/><rect class="cls-2" x="367.66" y="92.66" width="6.69" height="6.7"/><rect class="cls-2" x="487.91" y="43.78" width="6.69" height="6.7"/><rect class="cls-2" x="494.6" y="50.47" width="6.69" height="13.12"/><rect class="cls-2" x="623.93" y="47.53" width="6.69" height="6.7"/><rect class="cls-2" x="630.62" y="54.23" width="6.69" height="6.7"/><rect class="cls-2" x="648.73" y="36.7" width="6.69" height="6.7"/><rect class="cls-2" x="598.02" y="51.02" width="6.69" height="6.7"/><rect class="cls-2" x="547.38" y="50.34" width="6.7" height="6.69" transform="translate(497.04 604.41) rotate(-90)"/><rect class="cls-2" x="608.06" y="30" width="13.38" height="6.7"/><rect class="cls-2" x="655.42" y="30" width="6.69" height="6.7"/><rect class="cls-2" x="683.28" y="54.37" width="6.69" height="6.7"/><rect class="cls-2" x="689.97" y="47.67" width="6.69" height="6.7"/><rect class="cls-2" x="696.66" y="54.37" width="6.69" height="6.7"/><rect class="cls-2" x="465.78" y="43.64" width="6.69" height="6.7"/><rect class="cls-2" x="472.47" y="50.34" width="6.69" height="6.7"/><rect class="cls-2" x="547.38" y="30" width="6.69" height="6.7"/><rect class="cls-2" x="554.07" y="36.7" width="6.69" height="6.7"/><rect class="cls-2" x="560.76" y="30" width="6.69" height="6.7"/><rect class="cls-2" x="579.16" y="30" width="6.69" height="6.7"/><rect class="cls-2" x="585.85" y="36.7" width="6.69" height="6.7"/><rect class="cls-2" x="527.3" y="43.91" width="6.69" height="6.7"/><rect class="cls-2" x="513.92" y="50.61" width="13.38" height="6.7"/><rect class="cls-2" x="472.47" y="36.94" width="6.69" height="6.7"/><rect class="cls-2" x="650.71" y="54.23" width="6.69" height="6.7"/><rect class="cls-2" x="657.4" y="47.53" width="6.69" height="6.7"/><rect class="cls-2" x="664.09" y="54.23" width="6.69" height="6.7"/><rect class="cls-2" x="704.25" y="30.09" width="6.69" height="6.7"/><rect class="cls-2" x="697.56" y="36.79" width="6.69" height="6.7"/><rect class="cls-2" x="675.08" y="29.98" width="6.69" height="6.7"/><rect class="cls-2" x="501.29" y="63.59" width="6.69" height="6.7"/><rect class="cls-2" x="512.34" y="30" width="6.69" height="6.7"/><rect class="cls-2" x="554.07" y="57.03" width="6.7" height="6.69" transform="translate(497.04 617.8) rotate(-90)"/><rect class="cls-2" x="564.1" y="47" width="6.7" height="13.37" transform="translate(513.76 621.13) rotate(-90)"/><rect class="cls-2" x="533.99" y="37.21" width="6.69" height="6.7"/><rect class="cls-2" x="505.64" y="36.7" width="6.69" height="6.7"/><rect class="cls-2" x="604.72" y="57.71" width="6.69" height="6.7"/><rect class="cls-2" x="611.41" y="64.41" width="6.69" height="6.7"/><rect class="cls-2" x="591.33" y="57.71" width="6.69" height="6.7"/><polygon id="Check" class="cls-2" points="238.54 102.3 218.85 85.48 177.28 130.25 142.93 100.26 124.68 118.55 179.51 166.28 196.71 147.22 238.54 102.3"/></g></g></g></g></g></svg>