<svg xmlns="http://www.w3.org/2000/svg" viewBox="0 0 196.01 196.01"><defs><style>.cls-1{fill:none;}.cls-2{fill:#03c04a;}</style></defs><g id="Camada_2" data-name="Camada 2"><g id="Variações"><g id="Ícones"><g id="Sample_3" data-name="Sample 3"><rect class="cls-1" width="196.01" height="196.01"/><path d="M143,58.06V75.71h17.64V58.06Zm14.54,14.48H146.14V61.19h11.35Z"/><rect class="cls-2" x="148.73" y="63.79" width="6.16" height="6.16" transform="translate(303.63 133.73) rotate(180)"/><path class="cls-2" d="M160.59,22.77V58.06h35.3V22.77Zm29.09,29H167V29h22.7Z"/><rect x="172.17" y="34.21" width="12.32" height="12.32" transform="translate(356.65 80.75) rotate(180)"/><path id="Letra_Q_com_corte_" data-name="Letra Q (com corte)" d="M87.06,133A41,41,0,0,1,70,136.44a43.06,43.06,0,0,1-16.23-2.91,34.16,34.16,0,0,1-12.38-8.44,38.42,38.42,0,0,1-8-13.22A49.3,49.3,0,0,1,30.58,94.8q0-12.39,4.87-21.67a35.46,35.46,0,0,1,13.7-14.44Q58,53.53,70,53.53a42.06,42.06,0,0,1,15.85,2.91,35,35,0,0,1,12.47,8.44A38,38,0,0,1,106.36,78a48.13,48.13,0,0,1,2.81,16.79,48.32,48.32,0,0,1-3.31,18.3l22.62,19.73A67.29,67.29,0,0,0,139.56,95a69.16,69.16,0,0,0-5.25-27.1,65.87,65.87,0,0,0-14.73-21.76A67.78,67.78,0,0,0,97.45,31.68,72.15,72.15,0,0,0,70,26.52a73.15,73.15,0,0,0-27.86,5.16A67.78,67.78,0,0,0,20,46.12,66.18,66.18,0,0,0,5.25,67.78,68.52,68.52,0,0,0,0,94.8a67.43,67.43,0,0,0,20.26,48.77A69.47,69.47,0,0,0,42.49,158.2a72,72,0,0,0,27.85,5.25,69.84,69.84,0,0,0,27.2-5.25,71.5,71.5,0,0,0,11.53-6.1Z"/><polygon id="Check" class="cls-2" points="196.01 105.41 175.12 87.57 131.01 135.04 94.57 103.24 75.2 122.64 133.38 173.25 151.63 153.03 196.01 105.41"/></g></g></g></g></svg>